<svg aria-hidden="true" style="position:absolute;width:0;height:0;overflow:hidden" xmlns="http://www.w3.org/2000/svg"><defs><symbol id="calendar" viewBox="0 0 32 32"><path d="M27 31H5a2 2 0 0 1-2-2V7a2 2 0 0 1 2-2h2v1a3 3 0 1 0 6 0V5h6v1a3 3 0 0 0 6 0V5h2a2 2 0 0 1 2 2v22a2 2 0 0 1-2 2zm0-19H5v17h22V12zm-17 5H7v-3h3v3zm0 5H7v-3h3v3zm0 5H7v-3h3v3zm5-10h-3v-3h3v3zm0 5h-3v-3h3v3zm0 5h-3v-3h3v3zm5-10h-3v-3h3v3zm0 5h-3v-3h3v3zm0 5h-3v-3h3v3zm5-10h-3v-3h3v3zm0 5h-3v-3h3v3zm0 5h-3v-3h3v3zM21.969 8A1.969 1.969 0 0 1 20 6.031V3.969a1.968 1.968 0 1 1 3.938 0v2.062A1.969 1.969 0 0 1 21.969 8zm-12 0A1.969 1.969 0 0 1 8 6.031V3.969a1.968 1.968 0 1 1 3.938 0v2.062A1.97 1.97 0 0 1 9.969 8z"/></symbol></defs></svg>